<?xml version="1.0" standalone="no"?>
<!DOCTYPE svg PUBLIC "-//W3C//DTD SVG 20010904//EN"
 "http://www.w3.org/TR/2001/REC-SVG-20010904/DTD/svg10.dtd">
<svg version="1.0" xmlns="http://www.w3.org/2000/svg"
 width="200.000000pt" height="200.000000pt" viewBox="0 0 200.000000 200.000000"
 preserveAspectRatio="xMidYMid meet">
<metadata>
Created by potrace 1.11, written by Peter Selinger 2001-2013
</metadata>
<g transform="translate(0.000000,200.000000) scale(0.100000,-0.100000)"
fill="#000000" stroke="none">
<path d="M954 1800 c-27 -11 -32 -25 -50 -135 -8 -49 -17 -101 -19 -115 -64
-388 -85 -521 -86 -541 -1 -49 -17 14 -24 97 -4 43 -9 81 -10 84 -2 3 -6 39
-10 80 -11 104 -11 103 -18 126 -14 41 -75 49 -103 13 -6 -8 -24 -50 -39 -94
-15 -44 -49 -142 -75 -217 l-47 -138 -32 103 c-44 140 -47 146 -76 153 -51 13
-69 -7 -107 -113 l-35 -98 -94 -1 c-52 -1 -102 -2 -111 -3 -15 -1 -18 -11 -18
-63 l0 -63 130 1 c162 2 173 5 195 50 19 39 22 40 29 4 10 -56 59 -196 74
-212 19 -23 54 -23 80 0 12 10 43 86 78 189 54 159 65 183 70 150 2 -17 24
-212 30 -267 2 -25 6 -58 8 -75 3 -16 7 -57 11 -90 13 -117 24 -153 45 -156 6
-1 16 -2 23 -3 15 -3 50 13 59 27 3 6 9 30 13 55 4 24 8 54 11 65 7 34 11 62
34 202 11 72 23 141 25 155 2 14 16 94 30 179 25 154 34 190 36 135 0 -16 2
-36 4 -44 2 -15 23 -166 30 -225 2 -16 7 -50 10 -75 4 -25 8 -58 10 -75 2 -16
9 -66 15 -110 6 -44 14 -96 16 -115 4 -32 8 -64 19 -140 2 -14 6 -47 9 -75 4
-27 8 -61 11 -75 2 -14 7 -47 10 -75 8 -73 13 -82 45 -95 25 -10 34 -10 55 4
14 9 25 20 26 24 0 4 2 16 4 27 2 11 7 40 11 65 4 25 8 50 10 57 2 12 12 78
19 128 8 50 15 97 25 155 5 30 12 75 15 100 3 25 10 68 15 95 5 28 16 97 25
155 8 58 21 137 27 175 l11 70 78 -273 c42 -151 85 -282 95 -293 18 -20 54
-20 78 0 7 6 37 60 67 121 l54 110 107 0 107 0 -2 62 -2 61 -132 -1 c-79 -1
-140 -6 -150 -13 -10 -6 -29 -35 -43 -65 -15 -32 -27 -48 -31 -41 -5 9 -125
421 -144 497 -38 147 -50 172 -92 185 -28 8 -73 -33 -73 -67 0 -13 -9 -76 -20
-141 -11 -65 -22 -132 -24 -150 -2 -18 -9 -61 -15 -97 -6 -36 -13 -82 -17
-104 -3 -21 -7 -46 -9 -55 -1 -9 -6 -41 -11 -71 -4 -30 -8 -57 -9 -60 -2 -6
-19 -122 -19 -132 -2 -22 -16 -16 -17 8 0 16 -2 38 -4 49 -2 11 -15 108 -30
215 -14 107 -27 206 -30 220 -2 14 -7 46 -9 72 -3 26 -8 62 -11 80 -4 33 -22
167 -30 223 -2 17 -7 55 -10 85 -11 86 -24 129 -45 140 -22 12 -28 12 -56 0z"/>
</g>
</svg>
